# xmcd
#
# Track frame offsets: 
#        187
#        16607
#        40025
#        53825
#        70400
#        84950
#        102425
#        129275
#        142550
#        156875
#        171125
#        192050
#        207500
#        223775
#        235475
#        263450
#        278975
#        297050
#        317450
#
# Disc length: 4468 seconds
#
# Revision: 3
# Processed by: cddbd v1.4PL0 Copyright (c) Steve Scherf et al.
# Submitted via: ExactAudioCopy v0.90b3
#
DISCID=00117213
DTITLE=Ian Tyson - Old Corrals And Sagebrush
DYEAR=1900
DGENRE=Country
TTITLE0=Alberta's Child
TTITLE1=The Old Double Diamond
TTITLE2=Windy Bill
TTITLE3=Montana Waltz
TTITLE4=Woopee Ti Yi Yo
TTITLE5=Leavin' Cheyenne
TTITLE6=Gallo De Cielo
TTITLE7=Old Corrals And Sagebrush
TTITLE8=Old Alberta Moon
TTITLE9=Diamond Joe
TTITLE10=Night Riders Lament
TTITLE11=Tom Blasingame
TTITLE12=Sierra Peaks
TTITLE13=Colorado Trail
TTITLE14=Hot Summer Tears
TTITLE15=What Does She See
TTITLE16=Rocks Begin To Roll
TTITLE17=Will James
TTITLE18=Murder Steer
EXTD=
EXTT0=
EXTT1=
EXTT2=
EXTT3=
EXTT4=
EXTT5=
EXTT6=
EXTT7=
EXTT8=
EXTT9=
EXTT10=
EXTT11=
EXTT12=
EXTT13=
EXTT14=
EXTT15=
EXTT16=
EXTT17=
EXTT18=
PLAYORDER=
